<svg width="23" height="13" viewBox="0 0 23 13" fill="none" xmlns="http://www.w3.org/2000/svg">
<path fill-rule="evenodd" clip-rule="evenodd" d="M17.2743 3.59712C16.574 2.18074 15.0956 1.75965 13.6561 1.75965C12.9558 1.75965 12.2555 1.91277 11.6719 2.14246C11.2828 2.41042 11.0105 2.67838 10.8549 2.86979C10.9716 2.37214 11.2439 2.02761 11.6719 1.79793V0.726074C9.92114 0.726074 8.63725 0.726074 6.9254 0.726074V2.52526H9.6877V6.62128C9.6877 8.19079 9.29865 9.41576 7.50899 9.41576C5.95276 9.41576 5.09684 8.72672 4.94122 7.34861H2.95703C3.22937 9.87513 5.05793 11.215 7.50899 11.215C8.71506 11.215 9.29865 10.9087 9.99895 10.3345C9.88223 10.1048 9.80442 9.87513 9.76551 9.56889C9.88223 9.72201 10.0379 9.91341 10.1935 10.1431C10.9716 11.1001 12.2166 11.4446 13.695 11.4446C14.2397 11.4446 14.7454 11.4064 15.2123 11.2532L14.512 10.8321L13.4226 10.2197V9.91341C12.5278 9.83685 11.6719 9.45405 11.2439 8.72672C11.4774 8.15251 11.633 7.46346 11.633 6.73612C12.2555 6.96581 12.9558 7.11893 13.695 7.19549C13.8895 7.23377 14.084 7.23377 14.2786 7.27205L14.512 7.15721L15.6014 6.54472L16.6907 7.15721L17.4299 7.5783C16.9631 6.2002 15.4457 5.81739 13.8506 5.62599C12.7223 5.51115 11.7886 5.28146 11.7886 4.47757C11.7886 3.78852 12.4111 3.25259 13.695 3.25259C14.7065 3.25259 15.5625 3.75024 15.9126 4.28617L17.2743 3.59712Z" fill="#55597D"/>
<path fill-rule="evenodd" clip-rule="evenodd" d="M18.6748 11.5978C19.3362 11.6744 20.1143 11.6361 20.5812 11.1767C21.0091 10.7556 21.1259 10.1431 21.1259 9.56893V7.61662C21.1259 6.851 21.3982 6.2768 22.0985 6.16195V5.4729C21.3982 5.35806 21.1259 4.74557 21.1259 4.01824V2.06593C21.1259 1.49172 21.0091 0.840954 20.5812 0.458149C20.1143 -0.0394989 19.3362 -0.0394989 18.6748 0.0370622V0.726113C19.5696 0.649552 19.9587 1.1472 19.9587 2.14249V4.01824C19.9587 4.32449 19.9198 4.78385 20.0365 5.0901C20.1921 5.39634 20.5812 5.62603 20.9313 5.81743C20.5812 6.00883 20.1921 6.23852 20.0365 6.54476C19.9198 6.851 19.9587 7.31037 19.9587 7.61662V9.49236C19.9587 10.5642 19.6085 10.9087 18.6748 10.8705V11.5978Z" fill="#55597D"/>
<path fill-rule="evenodd" clip-rule="evenodd" d="M15.6015 5.97076L16.9243 6.73638L18.2471 7.46371V8.99493V10.5262L16.9243 11.2918L15.6015 12.0574L14.2398 11.2918L12.917 10.5262V8.99493V7.46371L14.2398 6.73638L15.6015 5.97076ZM15.6015 6.54497L16.6908 7.15746L17.7413 7.76995V8.99493V10.2199L16.6908 10.8324L15.6015 11.4832L14.5121 10.8324L13.4228 10.2199V8.99493V7.76995L14.5121 7.15746L15.6015 6.54497Z" fill="url(#paint0_linear_561_9588)"/>
<path fill-rule="evenodd" clip-rule="evenodd" d="M14.0448 9.26254V9.64535H13.7725V8.34381C13.967 8.34381 14.1615 8.34381 14.395 8.34381C15.0174 8.34381 15.0174 9.26254 14.395 9.26254H14.0448ZM15.4454 9.22426H15.2509V9.64535H14.9785V8.34381H15.0174C15.212 8.34381 15.4065 8.34381 15.601 8.34381C15.8734 8.34381 16.0679 8.49693 16.0679 8.80318C16.0679 8.99458 15.9901 9.1477 15.7956 9.18598L16.1457 9.60707V9.64535H15.8345L15.4454 9.22426ZM16.8071 8.34381C17.2351 8.34381 17.5074 8.61178 17.4685 8.99458C17.4685 9.37739 17.2351 9.68363 16.8071 9.68363C16.418 9.68363 16.1457 9.41567 16.1457 8.99458C16.1457 8.61178 16.418 8.34381 16.8071 8.34381ZM14.0448 8.61178V8.99458H14.395C14.6673 8.99458 14.6673 8.61178 14.395 8.61178H14.0448ZM15.2509 8.61178V8.9563H15.601C15.7177 8.9563 15.7956 8.91802 15.7956 8.80318C15.7956 8.68834 15.7177 8.61178 15.601 8.61178H15.2509ZM16.8071 8.57349C16.5737 8.57349 16.418 8.7649 16.418 8.99458C16.418 9.22426 16.5737 9.41567 16.8071 9.41567C17.0794 9.41567 17.1962 9.22426 17.1962 8.99458C17.1962 8.7649 17.0794 8.57349 16.8071 8.57349Z" fill="#55597D"/>
<path fill-rule="evenodd" clip-rule="evenodd" d="M3.42369 11.5978C2.7623 11.6744 2.02309 11.6361 1.51732 11.1767C1.08936 10.7556 0.972641 10.1431 0.972641 9.56893V7.61662C0.972641 6.851 0.739207 6.2768 0 6.16195V5.4729C0.739207 5.35806 0.972641 4.74557 0.972641 4.01824V2.06593C0.972641 1.49172 1.08936 0.840954 1.51732 0.458149C2.02309 -0.0394989 2.7623 -0.0394989 3.42369 0.0370622V0.726113C2.52887 0.649552 2.17871 1.1472 2.17871 2.14249V4.01824C2.17871 4.32449 2.17871 4.78385 2.062 5.0901C1.90638 5.39634 1.51732 5.62603 1.16717 5.81743C1.51732 6.00883 1.90638 6.23852 2.062 6.54476C2.17871 6.851 2.17871 7.31037 2.17871 7.61662V9.49236C2.17871 10.5642 2.48996 10.9087 3.42369 10.8705V11.5978Z" fill="#55597D"/>
<defs>
<linearGradient id="paint0_linear_561_9588" x1="13.0416" y1="9.05259" x2="18.2886" y2="9.05259" gradientUnits="userSpaceOnUse">
<stop stop-color="#4CA5FF"/>
<stop offset="1" stop-color="#B673F8"/>
</linearGradient>
</defs>
</svg>
