<svg width="20" height="20" viewBox="0 0 20 20" fill="none" xmlns="http://www.w3.org/2000/svg">
<path fill-rule="evenodd" clip-rule="evenodd" d="M8.24645 9.35835C7.88187 9.35835 7.59359 9.64169 7.59359 10C7.59359 10.35 7.88187 10.6417 8.24645 10.6417H13.3337V14.625C13.3337 16.6667 11.6464 18.3334 9.56065 18.3334H5.43153C3.35425 18.3334 1.66699 16.675 1.66699 14.6334V5.37502C1.66699 3.32502 3.36273 1.66669 5.44001 1.66669H9.5776C11.6464 1.66669 13.3337 3.32502 13.3337 5.36669V9.35835H8.24645ZM16.3588 7.11685L18.7922 9.54185C18.9172 9.66685 18.9838 9.82519 18.9838 10.0002C18.9838 10.1669 18.9172 10.3335 18.7922 10.4502L16.3588 12.8752C16.2338 13.0002 16.0672 13.0669 15.9088 13.0669C15.7422 13.0669 15.5755 13.0002 15.4505 12.8752C15.2005 12.6252 15.2005 12.2169 15.4505 11.9669L16.7838 10.6419H13.3338V9.35852H16.7838L15.4505 8.03352C15.2005 7.78352 15.2005 7.37519 15.4505 7.12519C15.7005 6.86685 16.1088 6.86685 16.3588 7.11685Z" fill="#55597D"/>
</svg>
