<svg width="14" height="14" viewBox="0 0 14 14" fill="none" xmlns="http://www.w3.org/2000/svg">
<path fill-rule="evenodd" clip-rule="evenodd" d="M4.27591 1.16672H9.71842C11.7017 1.16672 12.8334 2.28672 12.8334 4.27588V9.72422C12.8334 11.7017 11.7076 12.8334 9.72425 12.8334H4.27591C2.28675 12.8334 1.16675 11.7017 1.16675 9.72422V4.27588C1.16675 2.28672 2.28675 1.16672 4.27591 1.16672ZM7.47842 7.48422H9.13508C9.40341 7.47838 9.61925 7.26255 9.61925 6.99422C9.61925 6.72588 9.40341 6.51005 9.13508 6.51005H7.47842V4.86505C7.47842 4.59672 7.26258 4.38088 6.99425 4.38088C6.72591 4.38088 6.51008 4.59672 6.51008 4.86505V6.51005H4.85925C4.73091 6.51005 4.60841 6.56255 4.51508 6.65005C4.42758 6.74338 4.37508 6.8653 4.37508 6.99422C4.37508 7.26255 4.59091 7.47838 4.85925 7.48422H6.51008V9.13505C6.51008 9.40338 6.72591 9.61922 6.99425 9.61922C7.26258 9.61922 7.47842 9.40338 7.47842 9.13505V7.48422Z" fill="white"/>
</svg>
