<svg width="13" height="12" viewBox="0 0 13 12" fill="none" xmlns="http://www.w3.org/2000/svg">
<path fill-rule="evenodd" clip-rule="evenodd" d="M3.77616 0.166748H9.21866C11.202 0.166748 12.3337 1.28675 12.3337 3.27591V8.72425C12.3337 10.7017 11.2078 11.8334 9.22449 11.8334H3.77616C1.78699 11.8334 0.666992 10.7017 0.666992 8.72425V3.27591C0.666992 1.28675 1.78699 0.166748 3.77616 0.166748ZM6.97866 6.48425H8.63533C8.90366 6.47842 9.11949 6.26258 9.11949 5.99425C9.11949 5.72591 8.90366 5.51008 8.63533 5.51008H6.97866V3.86508C6.97866 3.59675 6.76283 3.38091 6.49449 3.38091C6.22616 3.38091 6.01033 3.59675 6.01033 3.86508V5.51008H4.35949C4.23116 5.51008 4.10866 5.56258 4.01533 5.65008C3.92783 5.74341 3.87533 5.86533 3.87533 5.99425C3.87533 6.26258 4.09116 6.47842 4.35949 6.48425H6.01033V8.13508C6.01033 8.40341 6.22616 8.61925 6.49449 8.61925C6.76283 8.61925 6.97866 8.40341 6.97866 8.13508V6.48425Z" fill="#42BBFF"/>
</svg>
